<svg width="20" height="21" viewBox="0 0 20 21" fill="none" xmlns="http://www.w3.org/2000/svg">
<g clip-path="url(#clip0_22_1407)">
<path d="M11.5 20.3117V13.3852H13.8088L14.25 10.5029H11.5V8.64995C11.5 7.85583 11.8824 7.09113 13.1176 7.09113H14.3676V4.64995C13.6127 4.52249 12.8726 4.45877 12.1471 4.45877C9.88235 4.45877 8.39706 5.84113 8.39706 8.32642V10.5029H5.88235V13.3852H8.39706V20.3117C3.66176 19.5764 0.0294113 15.4588 0.0294113 10.5029C0.0294113 5.0323 4.47059 0.576416 9.95588 0.576416C15.4265 0.576416 19.8824 5.0323 19.8824 10.5029C19.8824 15.4588 16.25 19.5764 11.5 20.3117Z" fill="#4676ED"/>
<path d="M11.5 13.3852V20.3117C11 20.3901 10.4853 20.4293 9.95588 20.4293C9.42647 20.4293 8.90687 20.3901 8.39706 20.3117V13.3852H5.88235V10.5029H8.39706V8.32639C8.39706 5.84109 9.88235 4.45874 12.1471 4.45874C12.8725 4.45874 13.6128 4.52246 14.3676 4.64992V7.09109H13.1176C11.8824 7.09109 11.5 7.8558 11.5 8.64992V10.5029H14.25L13.8088 13.3852H11.5Z" fill="white"/>
</g>
<defs>
<clipPath id="clip0_22_1407">
<rect width="20" height="20" fill="white" transform="translate(0 0.444092)"/>
</clipPath>
</defs>
</svg>
