<svg width="20" height="21" viewBox="0 0 20 21" fill="none" xmlns="http://www.w3.org/2000/svg">
<g clip-path="url(#clip0_22_1421)">
<path d="M9.97059 20.3263C4.5 20.3263 0.0441132 15.8704 0.0441132 10.3999C0.0441132 4.91456 4.5 0.473389 9.97059 0.473389C15.4559 0.473389 19.8971 4.91456 19.8971 10.3999C19.8971 15.8704 15.4559 20.3263 9.97059 20.3263Z" fill="url(#paint0_linear_22_1421)"/>
<path d="M6.80883 10.2823L13.3677 7.20874L10.75 12.2382C9.19118 13.8656 8.35784 14.6793 8.25 14.6793C8.14217 14.6793 8.03922 14.5813 7.94118 14.3852L6.76471 11.1205L6.80883 10.2823Z" fill="#C8DAEA"/>
<path d="M10.1912 13.047C9.72059 13.4293 9.24019 13.8656 8.75 14.3558C8.25981 14.846 8.04412 14.846 8.10294 14.3558L8.32353 11.9587L10.1912 13.047Z" fill="#A9C6D8"/>
<path d="M6.79412 11.2382L4.36765 10.4441C4.17157 10.3657 4.10784 10.2382 4.17647 10.0617C4.19118 10.0029 4.23529 9.95879 4.33823 9.88526C4.70098 9.63036 8.01471 8.37547 14.2794 6.12057C14.4559 6.06175 14.598 6.05194 14.7059 6.09116C14.7794 6.12057 14.8235 6.14998 14.8529 6.26763C14.8676 6.31175 14.8824 6.39998 14.8824 6.48822C14.8824 6.54704 14.8676 6.60586 14.8676 6.6941C14.8284 7.31175 14.2353 9.91469 13.0882 14.5029C13.0294 14.7774 12.8774 14.9196 12.6324 14.9294C12.4853 14.9294 12.3235 14.9 12.1324 14.7382C11.4118 14.1206 8.92647 12.4441 8.36765 12.0765C8.33823 12.047 8.33823 12.0323 8.32353 12.0029C8.32353 11.9735 8.33823 11.9441 8.36765 11.9147C11.2598 9.34606 12.7402 7.92448 12.8088 7.64998C12.8235 7.62057 12.7941 7.60586 12.75 7.62057C12.4559 7.72351 7.47059 10.8853 6.91176 11.2235C6.89216 11.2431 6.85294 11.248 6.79412 11.2382Z" fill="white"/>
</g>
<defs>
<linearGradient id="paint0_linear_22_1421" x1="-0.250004" y1="20.3263" x2="-0.250004" y2="0.473389" gradientUnits="userSpaceOnUse">
<stop stop-color="#1D93D2"/>
<stop offset="1" stop-color="#38B0E3"/>
</linearGradient>
<clipPath id="clip0_22_1421">
<rect width="20" height="20" fill="white" transform="translate(0 0.444092)"/>
</clipPath>
</defs>
</svg>
