<svg width="20" height="21" viewBox="0 0 20 21" fill="none" xmlns="http://www.w3.org/2000/svg">
<g clip-path="url(#clip0_22_1430)">
<path d="M19.9706 10.5029C19.9706 15.9882 15.5294 20.4294 10.0441 20.4294C4.57353 20.4294 0.117645 15.9882 0.117645 10.5029C0.117645 5.0323 4.57353 0.576416 10.0441 0.576416C15.5294 0.576416 19.9706 5.0323 19.9706 10.5029Z" fill="#5A99EC"/>
<path d="M4 15.0469C4.20588 15.0665 4.41666 15.0763 4.63235 15.0763C5.86765 15.0763 7 14.6646 7.91176 13.944C6.75 13.9293 5.77941 13.1646 5.44118 12.1205C5.59804 12.1499 5.76471 12.1646 5.94118 12.1646C6.17647 12.1646 6.40685 12.1352 6.63235 12.0763C5.42647 11.8263 4.51471 10.7675 4.51471 9.48811C4.51471 9.4783 4.51471 9.46849 4.51471 9.4587C4.86765 9.64987 5.27941 9.76752 5.70588 9.78223C5 9.31164 4.54412 8.50281 4.54412 7.59105C4.54412 7.10576 4.67647 6.66458 4.89706 6.26752C6.19118 7.85576 8.13235 8.91458 10.3235 9.01752C10.2843 8.83124 10.2647 8.63027 10.2647 8.41458C10.2647 6.9587 11.4412 5.78223 12.8971 5.78223C13.6618 5.78223 14.3382 6.10576 14.8235 6.62046C15.4265 6.50281 15.9853 6.28223 16.5 5.9734C16.2941 6.59105 15.8824 7.10576 15.3382 7.42929C15.8676 7.37046 16.3824 7.23811 16.8529 7.01752C16.5 7.54693 16.0441 8.01752 15.5294 8.38517C15.5393 8.50282 15.5441 8.61555 15.5441 8.7234C15.5441 12.2087 12.8971 16.2234 8.04412 16.2234C6.55882 16.2234 5.16176 15.7969 4 15.0469Z" fill="white"/>
</g>
<defs>
<clipPath id="clip0_22_1430">
<rect width="20" height="20" fill="white" transform="translate(0 0.444092)"/>
</clipPath>
</defs>
</svg>
