<svg width="20" height="21" viewBox="0 0 20 21" fill="none" xmlns="http://www.w3.org/2000/svg">
<g clip-path="url(#clip0_22_1414)">
<path d="M19.9135 10.4442C19.9135 15.9112 15.4752 20.3642 9.99348 20.3642C4.51176 20.3642 0.0734787 15.9112 0.0734787 10.4442C0.0734787 4.96245 4.51176 0.52417 9.99348 0.52417C15.4752 0.52417 19.9135 4.96245 19.9135 10.4442Z" fill="#DA0000"/>
<path fill-rule="evenodd" clip-rule="evenodd" d="M16.6068 10.4443C16.6068 11.8747 16.5138 12.9328 16.3276 13.6187C16.1806 14.1918 15.725 14.6327 15.1666 14.7944C14.471 14.9805 12.7466 15.0736 9.99348 15.0736C7.24038 15.0736 5.51601 14.9805 4.82039 14.7944C4.26193 14.6327 3.80634 14.1918 3.65938 13.6187C3.47324 12.9328 3.38015 11.8747 3.38015 10.4443C3.38015 9.00404 3.47324 7.94101 3.65938 7.25518C3.80634 6.68202 4.26193 6.24113 4.82039 6.07947C5.51601 5.90312 7.24038 5.81494 9.99348 5.81494C12.7466 5.81494 14.471 5.90312 15.1666 6.07947C15.725 6.24113 16.1806 6.68202 16.3276 7.25518C16.5138 7.94101 16.6068 9.00404 16.6068 10.4443ZM12.1097 10.4443L8.67082 8.46027V12.4283L12.1097 10.4443Z" fill="white"/>
</g>
<defs>
<clipPath id="clip0_22_1414">
<rect width="19.987" height="19.84" fill="white" transform="translate(0 0.52417)"/>
</clipPath>
</defs>
</svg>
