<svg width="17" height="17" viewBox="0 0 17 17" fill="none" xmlns="http://www.w3.org/2000/svg">
<g clip-path="url(#clip0_290_4704)">
<path d="M13.0141 8.33205L9.24206 4.41205C9.14616 4.30539 9.02362 4.25205 8.87445 4.25205C8.72527 4.25205 8.60273 4.30272 8.50684 4.40405C8.41094 4.50539 8.36299 4.62805 8.36299 4.77205C8.36299 4.91605 8.41094 5.04139 8.50684 5.14805L11.4318 8.18805H1.18654C1.04802 8.18805 0.928146 8.23872 0.82692 8.34005C0.725693 8.44139 0.675079 8.56405 0.675079 8.70805C0.675079 8.85205 0.725693 8.97739 0.82692 9.08405C0.928146 9.19072 1.04802 9.24405 1.18654 9.24405H11.4318L8.50684 12.2681C8.41094 12.3747 8.36299 12.5001 8.36299 12.6441C8.36299 12.7881 8.4136 12.9134 8.51483 13.0201C8.61605 13.1267 8.73593 13.1801 8.87445 13.1801C9.01297 13.1801 9.13551 13.1267 9.24206 13.0201L13.0141 9.08405C13.1206 8.97739 13.1739 8.85739 13.1739 8.72405C13.1739 8.59072 13.1206 8.46005 13.0141 8.33205Z" fill="#4B5563"/>
</g>
<defs>
<clipPath id="clip0_290_4704">
<rect width="16" height="16" fill="white" transform="matrix(1 0 0 -1 0.666656 16.4441)"/>
</clipPath>
</defs>
</svg>
