<svg width="36" height="37" viewBox="0 0 36 37" fill="none" xmlns="http://www.w3.org/2000/svg">
<rect y="0.444092" width="36" height="36" rx="18" fill="white"/>
<path d="M15.3333 17.7773C15.7015 17.7773 16 18.0758 16 18.444C16 19.5486 16.8954 20.444 18 20.444C19.1045 20.444 20 19.5486 20 18.444C20 18.0758 20.2984 17.7773 20.6666 17.7773C21.0348 17.7773 21.3333 18.0758 21.3333 18.444C21.3333 20.285 19.8409 21.7773 18 21.7773C16.159 21.7773 14.6666 20.285 14.6666 18.444C14.6666 18.0758 14.9651 17.7773 15.3333 17.7773Z" fill="#4B5563"/>
<path fill-rule="evenodd" clip-rule="evenodd" d="M21.3333 15.1108H22.7585C23.8078 15.1108 24.6787 15.9217 24.7534 16.9684L25.1276 22.2067C25.2654 24.1362 23.7372 25.7775 21.8027 25.7775H14.1973C12.2628 25.7775 10.7346 24.1362 10.8724 22.2067L11.2466 16.9684C11.3213 15.9217 12.1922 15.1108 13.2415 15.1108H14.6667V14.4442C14.6667 12.6032 16.1591 11.1108 18 11.1108C19.8409 11.1108 21.3333 12.6032 21.3333 14.4442V15.1108ZM16 15.1108H20V14.4442C20 13.3396 19.1046 12.4442 18 12.4442C16.8954 12.4442 16 13.3396 16 14.4442V15.1108ZM13.2415 16.4442C12.8917 16.4442 12.6014 16.7145 12.5765 17.0633L12.2024 22.3017C12.1197 23.4594 13.0366 24.4442 14.1973 24.4442H21.8027C22.9634 24.4442 23.8803 23.4594 23.7977 22.3017L23.4235 17.0633C23.3986 16.7145 23.1083 16.4442 22.7585 16.4442H13.2415Z" fill="#4B5563"/>
</svg>
