<svg width="25" height="25" viewBox="0 0 25 25" fill="none" xmlns="http://www.w3.org/2000/svg">
<path d="M10.25 13.972C10.25 14.942 11 15.722 11.92 15.722H13.8C14.6 15.722 15.25 15.042 15.25 14.192C15.25 13.282 14.85 12.952 14.26 12.742L11.25 11.692C10.66 11.482 10.26 11.162 10.26 10.242C10.26 9.40204 10.91 8.71204 11.71 8.71204H13.59C14.51 8.71204 15.26 9.49204 15.26 10.462" stroke="#111827" stroke-width="1.5" stroke-linecap="round" stroke-linejoin="round"/>
<path d="M12.75 7.72205V16.722" stroke="#111827" stroke-width="1.5" stroke-linecap="round" stroke-linejoin="round"/>
<path d="M22.75 12.222C22.75 17.742 18.27 22.222 12.75 22.222C7.23 22.222 2.75 17.742 2.75 12.222C2.75 6.70205 7.23 2.22205 12.75 2.22205" stroke="#111827" stroke-width="1.5" stroke-linecap="round" stroke-linejoin="round"/>
<path d="M17.75 3.22205V7.22205H21.75" stroke="#111827" stroke-width="1.5" stroke-linecap="round" stroke-linejoin="round"/>
<path d="M22.75 2.22205L17.75 7.22205" stroke="#111827" stroke-width="1.5" stroke-linecap="round" stroke-linejoin="round"/>
</svg>
