<svg width="25" height="25" viewBox="0 0 25 25" fill="none" xmlns="http://www.w3.org/2000/svg">
<path d="M22.25 15.222C22.25 19.092 19.12 22.222 15.25 22.222L16.3 20.472" stroke="#111827" stroke-width="1.5" stroke-linecap="round" stroke-linejoin="round"/>
<path d="M2.25 9.22205C2.25 5.35205 5.38 2.22205 9.25 2.22205L8.2 3.97205" stroke="#111827" stroke-width="1.5" stroke-linecap="round" stroke-linejoin="round"/>
<path d="M13.95 4.672L17.9299 6.97199L21.8699 4.68201" stroke="#111827" stroke-width="1.5" stroke-linecap="round" stroke-linejoin="round"/>
<path d="M17.9299 11.042V6.96204" stroke="#111827" stroke-width="1.5" stroke-linecap="round" stroke-linejoin="round"/>
<path d="M16.99 2.43205L14.59 3.76201C14.05 4.06201 13.6 4.822 13.6 5.442V7.98204C13.6 8.60204 14.04 9.36203 14.59 9.66203L16.99 10.992C17.5 11.282 18.34 11.282 18.86 10.992L21.26 9.66203C21.8 9.36203 22.25 8.60204 22.25 7.98204V5.442C22.25 4.822 21.81 4.06201 21.26 3.76201L18.86 2.43205C18.35 2.15205 17.51 2.15205 16.99 2.43205Z" stroke="#111827" stroke-width="1.5" stroke-linecap="round" stroke-linejoin="round"/>
<path d="M2.59998 15.6721L6.56998 17.972L10.52 15.6821" stroke="#111827" stroke-width="1.5" stroke-linecap="round" stroke-linejoin="round"/>
<path d="M6.56995 22.042V17.962" stroke="#111827" stroke-width="1.5" stroke-linecap="round" stroke-linejoin="round"/>
<path d="M5.64 13.432L3.24001 14.762C2.70001 15.062 2.25 15.8219 2.25 16.4419V18.982C2.25 19.602 2.69001 20.362 3.24001 20.662L5.64 21.992C6.15 22.282 6.98999 22.282 7.50999 21.992L9.91 20.662C10.45 20.362 10.9 19.602 10.9 18.982V16.4419C10.9 15.8219 10.46 15.062 9.91 14.762L7.50999 13.432C6.98999 13.152 6.15 13.152 5.64 13.432Z" stroke="#111827" stroke-width="1.5" stroke-linecap="round" stroke-linejoin="round"/>
</svg>
