<svg width="25" height="25" viewBox="0 0 25 25" fill="none" xmlns="http://www.w3.org/2000/svg">
<path d="M12.5 22.222C18.0228 22.222 22.5 17.7448 22.5 12.222C22.5 6.6992 18.0228 2.22205 12.5 2.22205C6.97715 2.22205 2.5 6.6992 2.5 12.222C2.5 17.7448 6.97715 22.222 12.5 22.222Z" stroke="#111827" stroke-width="1.5" stroke-linecap="round" stroke-linejoin="round"/>
<path d="M8.49998 3.22205H9.49998C7.54998 9.06205 7.54998 15.382 9.49998 21.222H8.49998" stroke="#111827" stroke-width="1.5" stroke-linecap="round" stroke-linejoin="round"/>
<path d="M15.5 3.22205C17.45 9.06205 17.45 15.382 15.5 21.222" stroke="#111827" stroke-width="1.5" stroke-linecap="round" stroke-linejoin="round"/>
<path d="M3.5 16.222V15.222C9.34 17.172 15.66 17.172 21.5 15.222V16.222" stroke="#111827" stroke-width="1.5" stroke-linecap="round" stroke-linejoin="round"/>
<path d="M3.5 9.22214C9.34 7.27214 15.66 7.27214 21.5 9.22214" stroke="#111827" stroke-width="1.5" stroke-linecap="round" stroke-linejoin="round"/>
</svg>
