<svg width="56" height="33" viewBox="0 0 56 33" fill="none" xmlns="http://www.w3.org/2000/svg">
<g clip-path="url(#clip0_182_6142)">
<path d="M50 1.35962H6C2.68629 1.35962 0 3.96451 0 7.1778V26.5717C0 29.785 2.68629 32.3899 6 32.3899H50C53.3137 32.3899 56 29.785 56 26.5717V7.1778C56 3.96451 53.3137 1.35962 50 1.35962Z" fill="#111827"/>
<mask id="mask0_182_6142" style="mask-type:luminance" maskUnits="userSpaceOnUse" x="0" y="1" width="56" height="32">
<path d="M56 1.35962H0V32.3899H56V1.35962Z" fill="white"/>
</mask>
<g mask="url(#mask0_182_6142)">
<mask id="mask1_182_6142" style="mask-type:luminance" maskUnits="userSpaceOnUse" x="4" y="-6" width="48" height="47">
<path d="M51.7999 -5.90161H4.19995V40.256H51.7999V-5.90161Z" fill="white"/>
</mask>
<g mask="url(#mask1_182_6142)">
<path d="M12.7314 12.9649C12.5756 12.6617 12.3292 12.4118 12.0232 12.2241C11.7041 12.0345 11.3273 11.9018 10.8967 11.823C10.4586 11.7462 9.95243 11.7113 9.36604 11.7058L6.6588 11.7077C6.3774 11.7113 6.10168 11.9238 6.03558 12.1875L4.21407 19.8808C4.14797 20.1409 4.32455 20.3588 4.60594 20.3588H5.90243C6.18383 20.3588 6.46239 20.1473 6.52471 19.8808L6.96947 18.0129C7.02895 17.7528 7.30657 17.5358 7.5908 17.5358H7.9619C9.54734 17.534 10.7749 17.22 11.6569 16.5909C12.5435 15.9609 12.9807 15.1286 12.9807 14.0976C12.9798 13.6461 12.9033 13.267 12.7314 12.9649ZM9.93544 15.4783C9.54356 15.7567 8.99871 15.8959 8.29617 15.8959H7.9789C7.69656 15.8959 7.52376 15.6798 7.58513 15.4161L7.97512 13.7825C8.02989 13.5207 8.31411 13.3037 8.59268 13.3055L9.0176 13.3027C9.51334 13.3027 9.892 13.3861 10.1451 13.5473C10.3953 13.7066 10.5209 13.9602 10.519 14.2963C10.5266 14.8072 10.3254 15.2 9.93544 15.4783Z" fill="white"/>
<path d="M49.6905 12.3082L49.6093 12.3321L49.5007 12.3467L49.3675 12.3265L49.2996 12.2624L49.2684 12.1617L49.2665 12.0106V11.4512H49.6999V11.2781H49.2665V10.9292H49.0522V11.2781H48.9067V11.4512H49.0522V12.1022L49.1522 12.4245L49.4469 12.5271L49.5706 12.517L49.7018 12.4923V12.3082H49.6905Z" fill="white"/>
<path d="M51.7008 11.367L51.3911 11.2434L51.1626 11.2883L50.9303 11.4403L50.7953 11.2947L50.5762 11.2444L50.3656 11.2892L50.1664 11.4138V11.2782H49.9558V12.5006H50.1654V11.5877L50.342 11.4815L50.5177 11.4394L50.6612 11.4641L50.732 11.5346L50.7632 11.6518L50.7736 11.8029V12.5016H50.9841V11.7195L50.9803 11.6546L50.9766 11.595L51.156 11.4843L51.3335 11.4412L51.4723 11.466L51.5479 11.5365L51.5743 11.6546L51.5885 11.8038V12.5025H51.8V11.7086L51.7008 11.367Z" fill="white"/>
<path d="M18.9835 14.0644C18.4944 13.7971 17.722 13.6633 16.6663 13.6633C16.1441 13.6633 15.6238 13.7027 15.0978 13.7814C14.7097 13.8391 14.672 13.8502 14.4331 13.9005C13.9402 14.0049 13.8627 14.4819 13.8627 14.4819L13.7041 15.1147C13.6144 15.5185 13.8542 15.5029 13.9543 15.469C14.1696 15.4067 14.2895 15.3427 14.7296 15.2474C15.1498 15.1549 15.5926 15.0854 15.9439 15.0899C16.4623 15.0899 16.8589 15.1431 17.1233 15.2511C17.3839 15.361 17.5142 15.5496 17.5142 15.8225L17.4916 16.0001L17.3046 16.1118C16.569 16.1567 16.0374 16.2227 15.3924 16.3133C14.7617 16.3985 14.2083 16.5477 13.7485 16.7519C13.2546 16.9624 12.8882 17.2454 12.6323 17.6052C12.3849 17.9669 12.2612 18.4055 12.2612 18.9202C12.2612 19.4045 12.4406 19.8047 12.7891 20.1141C13.1394 20.4181 13.6021 20.5665 14.1554 20.5665C14.5058 20.5647 14.7768 20.5381 14.9694 20.4933L15.5974 20.2835L16.129 19.9979L16.6181 19.6848L16.6247 19.6939L16.5756 19.8954L16.5728 19.9036V19.9055C16.5199 20.1508 16.6729 20.3523 16.9193 20.3761L16.9241 20.3816H16.9467H17.941H18.128L18.145 20.3742C18.4037 20.3449 18.6464 20.1435 18.7031 19.9036L19.6483 15.936L19.6974 15.6128L19.7201 15.3097C19.7238 14.7475 19.4736 14.3309 18.9835 14.0644ZM16.8929 18.5255L16.6908 18.7837L16.1809 19.0392C15.9411 19.1335 15.7135 19.1811 15.5029 19.1811C15.1838 19.1811 14.9335 19.1363 14.7645 19.0447L14.5143 18.5731C14.5143 18.3177 14.5747 18.1153 14.7041 17.9597L15.2536 17.597C15.4888 17.5201 15.7758 17.4551 16.1082 17.4102C16.4047 17.3746 16.9902 17.3095 17.0667 17.3076L17.1564 17.4606C17.1384 17.5475 16.9722 18.2215 16.8929 18.5255Z" fill="white"/>
<path d="M42.5319 14.0702C42.0399 13.8028 41.2684 13.6682 40.2156 13.6682C39.6934 13.6682 39.1721 13.7076 38.6481 13.7891C38.259 13.844 38.2203 13.8559 37.9805 13.9054C37.4885 14.0089 37.412 14.4877 37.412 14.4877L37.2534 15.1196C37.1646 15.5233 37.3988 15.505 37.5083 15.4739C37.7246 15.4116 37.8407 15.3502 38.277 15.2514C38.6953 15.1598 39.1419 15.0921 39.4941 15.0939C40.0107 15.0939 40.4073 15.148 40.6707 15.256C40.9332 15.3659 41.0616 15.5563 41.0616 15.8265L41.0418 16.0031L40.8567 16.1176C40.1136 16.1606 39.581 16.2266 38.9427 16.3172C38.3138 16.4024 37.7586 16.5507 37.2977 16.7558C36.8058 16.9673 36.4347 17.2503 36.1816 17.6111C35.9314 17.9727 35.8096 18.4104 35.8096 18.9205C35.8096 19.4085 35.9871 19.8086 36.3403 20.1163C36.6925 20.4194 37.1504 20.5714 37.7038 20.5714C38.0522 20.5677 38.3232 20.5458 38.5168 20.4972L39.1429 20.2903L39.6792 20.0046L40.1646 19.6878L40.1731 19.6979L40.1287 19.9011L40.124 19.9048L40.1259 19.9084C40.0673 20.1538 40.2212 20.3571 40.4705 20.3791L40.4724 20.3837H40.4951C40.6584 20.3837 41.2231 20.3837 41.4922 20.3837H41.6754L41.6952 20.3773C41.9511 20.3471 42.1929 20.1456 42.2467 19.903L43.1948 15.9409L43.2448 15.6158L43.2722 15.3118C43.2731 14.7515 43.0257 14.3366 42.5319 14.0702ZM40.446 18.5313L40.2354 18.7923L39.7302 19.0459C39.4904 19.1393 39.2618 19.1878 39.055 19.1878C38.7255 19.1878 38.4819 19.1421 38.3176 19.0505L38.0645 18.5807C38.0645 18.3243 38.1259 18.1239 38.2496 17.9654C38.3752 17.8162 38.5669 17.6934 38.8048 17.6037C39.0371 17.5268 39.3242 17.4646 39.6584 17.4178C39.9531 17.3822 40.5366 17.3153 40.6122 17.3144L40.7038 17.4673C40.6905 17.5543 40.5234 18.2255 40.446 18.5313Z" fill="white"/>
<path d="M36.2761 12.9932C36.1137 12.6882 35.87 12.4419 35.5622 12.2496C35.2468 12.0592 34.8729 11.9254 34.4357 11.8485C34.006 11.7744 33.4933 11.7341 32.9107 11.7332L30.1997 11.735C29.9173 11.7397 29.6463 11.952 29.5812 12.213L27.7578 19.91C27.6917 20.171 27.873 20.3871 28.1487 20.3871L29.4471 20.3853C29.7228 20.3871 30.0052 20.1728 30.0703 19.9092L30.5094 18.0403C30.5736 17.7802 30.8522 17.5614 31.1326 17.5632H31.5037C33.091 17.5632 34.3214 17.2464 35.2072 16.6192C36.0825 15.9846 36.5254 15.1541 36.5254 14.1222C36.5207 13.6725 36.4404 13.2925 36.2761 12.9932ZM33.4801 15.5103C33.0892 15.7832 32.5434 15.9223 31.8446 15.9223H31.5217C31.2431 15.9251 31.0627 15.7053 31.1251 15.4435L31.5179 13.8127C31.5755 13.5517 31.8569 13.3329 32.1373 13.3356L32.5575 13.3329C33.0561 13.3356 33.43 13.4153 33.685 13.5765C33.939 13.7376 34.0589 13.9903 34.0618 14.3254C34.0646 14.8364 33.8691 15.2301 33.4801 15.5103Z" fill="white"/>
<path d="M47.393 12.2742C47.4525 12.0115 47.2825 11.7981 47.004 11.8018H45.8425C45.6045 11.8018 45.3902 11.9731 45.2854 12.1837L45.2212 12.2807L45.1626 12.5298L43.5394 19.6848L43.4865 19.9045L43.4884 19.91C43.4346 20.1453 43.5838 20.3229 43.8142 20.3569L43.834 20.3833H45.0399C45.2759 20.3833 45.4978 20.2094 45.5989 19.9952L45.6612 19.9035L47.3968 12.2752L47.393 12.2742Z" fill="white"/>
<path d="M27.7937 13.7596C27.4868 13.7632 26.2394 13.7596 26.2394 13.7596C25.9599 13.7596 25.6011 13.9784 25.4235 14.2394C25.4235 14.2394 23.5671 17.3288 23.3867 17.6392L23.1714 17.6365L22.5935 14.2605C22.5293 13.9949 22.2432 13.7679 21.8872 13.7679L20.7258 13.7696C20.4463 13.7696 20.2744 13.9858 20.3377 14.2494C20.3377 14.2494 21.2196 19.1162 21.3962 20.2617C21.4783 20.8935 21.3858 21.0062 21.3858 21.0062L20.2376 22.9455C20.0676 23.2092 20.1592 23.4244 20.4378 23.4244L21.7805 23.4226C22.06 23.4226 22.4273 23.2092 22.5935 22.9446L27.7587 14.4728C27.7587 14.4728 28.2554 13.7495 27.7937 13.7596Z" fill="white"/>
</g>
</g>
</g>
<defs>
<clipPath id="clip0_182_6142">
<rect width="56" height="32" fill="white" transform="translate(0 0.444092)"/>
</clipPath>
</defs>
</svg>
