<svg width="56" height="33" viewBox="0 0 56 33" fill="none" xmlns="http://www.w3.org/2000/svg">
<g clip-path="url(#clip0_182_6652)">
<path d="M50 1.35962H6C2.68629 1.35962 0 3.96451 0 7.1778V26.5717C0 29.785 2.68629 32.3899 6 32.3899H50C53.3137 32.3899 56 29.785 56 26.5717V7.1778C56 3.96451 53.3137 1.35962 50 1.35962Z" fill="#111827"/>
<mask id="mask0_182_6652" style="mask-type:luminance" maskUnits="userSpaceOnUse" x="0" y="1" width="56" height="32">
<path d="M56 1.35962H0V32.3899H56V1.35962Z" fill="white"/>
</mask>
<g mask="url(#mask0_182_6652)">
<mask id="mask1_182_6652" style="mask-type:luminance" maskUnits="userSpaceOnUse" x="5" y="-5" width="46" height="44">
<path d="M50.4 -4.84644H5.59998V38.596H50.4V-4.84644Z" fill="white"/>
</mask>
<g mask="url(#mask1_182_6652)">
<path d="M19.2681 8.58984V9.29308L19.269 9.29396H20.0005V8.58984H19.2681Z" fill="white"/>
<path d="M20.7374 7.875H20.0005V8.58962H20.7374V7.875Z" fill="white"/>
<path d="M18.6151 10.7036V10.0039H19.2689V9.29361L17.9314 9.29272V10.0039H17.2622V11.3718H17.9314L17.9305 10.7036H18.6151L18.6142 11.3727H17.9305V12.0357H17.2613V12.71H16.5659V12.0365H17.2604V11.3727H16.5659V10.7342H15.8759V11.3727H16.5659L16.565 12.0357H15.4162V12.5226H14.7993V13.118H15.4893V13.7819H14.7993V13.118H14.0669V14.1611H13.376V14.8285H12.9172V15.4957H12.4151C11.8452 16.3138 10.4236 18.864 9.99465 19.9009C8.44668 17.8104 7.2446 16.982 6.29812 16.6842C5.79056 16.5354 5.1692 17.0748 6.02086 17.9225C7.96531 20.0008 8.58215 21.7216 9.1728 23.093C9.48709 23.8164 10.8924 23.9294 11.175 23.192C11.7711 21.634 12.6444 19.8843 13.6686 18.4471V17.7018H14.2231L14.224 17.0292H14.7993V16.2534H15.4947V15.5019H14.7993V14.832H15.4947V15.5019H16.1739V14.8285H16.723V14.0131H17.3344V13.4535H17.9305V12.0357L18.6151 12.0365L18.6142 11.3727H19.3836V10.7036H18.6151Z" fill="white"/>
<path d="M34.503 14.5073C34.1264 14.5073 33.8284 14.7963 33.8284 15.1597C33.8266 15.5337 34.1517 15.7982 34.5229 15.7982C34.8742 15.7982 35.1614 15.5092 35.1614 15.1597C35.1614 14.7963 34.8742 14.5073 34.503 14.5073Z" fill="white"/>
<path d="M25.4057 14.5073C25.0345 14.5073 24.7365 14.7963 24.7365 15.1597C24.7365 15.5337 25.0607 15.7982 25.431 15.7982C25.7823 15.7982 26.0695 15.5092 26.0695 15.1597C26.0695 14.7963 25.7823 14.5073 25.4057 14.5073Z" fill="white"/>
<path d="M20.7374 9.29736H20.0005V10.012H20.7374V9.29736Z" fill="white"/>
<path d="M48.0364 21.1807V18.9729C48.0364 17.8248 47.3681 17.3081 46.1787 17.3081C45.3008 17.3081 44.6262 17.6557 44.1945 18.4045H44.1683L44.0057 17.3081C43.3925 17.4158 42.9328 17.6093 42.2925 17.6811V17.922C42.6881 17.922 43.0249 17.8721 43.1234 18.3064C43.1857 18.5849 43.1857 19.4301 43.1857 19.769V21.2499C43.1857 22.0468 43.2462 22.335 42.3124 22.398V22.6389C42.7964 22.6257 43.2724 22.6012 43.761 22.5899C44.2053 22.6012 44.665 22.6257 45.1148 22.6389V22.3989C44.1313 22.3394 44.2405 21.9768 44.2405 21.1789V19.3083C44.2405 18.4273 44.8619 17.6916 45.8364 17.6916C47.0204 17.6916 46.9834 18.8748 46.9834 19.7068V21.2508C46.9834 22.0477 47.0439 22.3359 46.1082 22.3989V22.6398C46.595 22.6266 47.0665 22.6021 47.5532 22.5907C48.003 22.6021 48.4636 22.6266 48.9116 22.6398V22.3989C47.9362 22.3376 48.0364 21.9742 48.0364 21.1807Z" fill="white"/>
<path d="M41.3407 17.3463C40.8855 17.3463 40.4674 17.6002 40.1323 17.8533C39.7069 17.4803 39.1235 17.3113 38.5482 17.3113C37.329 17.3113 36.21 17.9987 36.21 19.2782C36.21 20.0489 36.8178 20.7128 37.5394 20.9422V20.9659C37.0065 21.0376 36.4475 21.4247 36.4475 22.0045C36.4475 23.0887 37.5764 23.0668 38.4019 23.0887C39.2581 23.1386 40.6299 23.0782 40.6299 24.2605C40.6299 25.237 39.6825 25.5996 38.8092 25.5996C37.9359 25.5996 36.8331 25.3911 36.8331 24.3428C36.8331 23.968 37.068 23.5581 37.4762 23.4863C37.3299 23.354 37.1664 23.2674 36.9587 23.2674C36.4186 23.2674 36.0375 23.7762 36.0375 24.271C36.0375 25.5277 37.6162 25.8754 38.6466 25.8754C40.0058 25.8754 41.4698 25.3806 41.4698 23.8498C41.4698 22.2313 40.1314 22.1823 38.8598 22.0877L38.0235 22.05C37.7507 22.0264 37.0652 22.0745 37.0652 21.6515C37.0652 21.1594 38.0235 21.1594 38.401 21.1454C39.6816 21.0858 40.7898 20.6751 40.7898 19.2519C40.7898 18.815 40.638 18.392 40.3409 18.0671C40.4755 17.9602 40.6751 17.8394 40.853 17.8394C41.2341 17.8394 41.2766 18.2589 41.6577 18.2589C41.9006 18.2589 42.0713 18.0793 42.0713 17.8604C42.0713 17.489 41.6577 17.3428 41.3407 17.3463ZM38.4615 20.8686C37.562 20.8686 37.2666 19.9745 37.2666 19.2493C37.2666 18.4883 37.5258 17.5863 38.4841 17.5863C39.4306 17.5863 39.7277 18.4778 39.7277 19.2493C39.7277 20.0314 39.4206 20.8686 38.4615 20.8686Z" fill="white"/>
<path d="M49.6557 18.2231C49.7984 18.2003 49.9185 18.1207 49.9176 17.942C49.9176 17.7642 49.8138 17.6687 49.5844 17.6687H49.187V18.6645H49.3189V18.2231H49.5266L49.8129 18.6645H49.9646L49.6557 18.2231ZM49.4832 18.1216H49.3162V17.7747H49.5456C49.672 17.7747 49.7867 17.8071 49.7867 17.9455C49.7867 18.1153 49.635 18.1189 49.4832 18.1216Z" fill="white"/>
<path d="M49.5112 17.3086C49.0118 17.3086 48.6226 17.6843 48.6226 18.1695C48.6226 18.6503 49.0118 19.0304 49.5112 19.0304C50.0107 19.0304 50.3999 18.6529 50.3999 18.1695C50.3999 17.6843 50.0107 17.3086 49.5112 17.3086ZM49.5112 18.9095C49.0804 18.9095 48.758 18.582 48.758 18.1695C48.758 17.757 49.0823 17.4303 49.5112 17.4303C49.9375 17.4303 50.2572 17.7561 50.2572 18.1695C50.2572 18.5793 49.9393 18.9077 49.5112 18.9095Z" fill="white"/>
<path d="M22.8968 17.3071C22.0397 17.3071 21.4165 17.7905 21.0932 18.5271H21.067C21.0833 18.0909 21.0309 17.6565 20.9207 17.3071C20.3725 17.4271 19.8234 17.6434 19.2382 17.681V17.9202C19.6346 17.9202 19.9489 17.872 20.0582 18.3064C20.1476 18.5832 20.1314 19.4422 20.1314 19.7672V21.2481C20.1314 22.0451 20.1991 22.3349 19.2634 22.3962V22.6388C19.7502 22.6239 20.2208 22.6011 20.7067 22.5897C21.1772 22.6011 21.664 22.6256 22.139 22.6388V22.3962C21.0941 22.348 21.1925 22.059 21.1925 21.178V19.9844C21.1925 19.4282 21.1925 18.838 21.4797 18.3423C21.6631 18.0392 22.0758 17.7397 22.447 17.7397C22.9329 17.7397 22.8236 18.3677 23.3456 18.3677C23.5813 18.3677 23.7791 18.1628 23.7791 17.9315C23.7791 17.4892 23.2824 17.3071 22.8968 17.3071Z" fill="white"/>
<path d="M18.7189 19.3818C18.8445 19.3818 19.0278 19.4317 19.0278 19.2741C19.0278 17.9701 17.8727 17.3071 16.6544 17.3071C15.0332 17.3071 13.8519 18.6681 13.8519 20.177C13.8519 21.7219 15.1217 22.772 16.6643 22.772C17.5999 22.772 18.2954 22.447 18.8806 21.7473L18.6187 21.4942C18.2475 21.975 17.683 22.3875 17.0508 22.3875C15.7178 22.3875 15.0955 21.1097 15.0955 19.9616L15.1488 19.3818H18.7189ZM16.6652 17.5865C17.4491 17.5865 17.8727 18.0673 17.8727 18.8152C17.8727 19.1174 17.4645 19.0561 17.2658 19.0569H15.212C15.3584 18.2722 15.735 17.5865 16.6652 17.5865Z" fill="white"/>
<path d="M35.1696 21.1807V17.3081L33.2043 17.6811V17.922C33.4536 17.908 33.9756 17.8843 34.0596 18.1873C34.1129 18.3704 34.1129 19.2987 34.1129 19.5264V21.2508C34.1021 22.0477 34.1752 22.3368 33.2558 22.3998V22.6415C33.7426 22.6275 34.224 22.6038 34.709 22.5916C35.1587 22.6038 35.6193 22.6275 36.0438 22.6415V22.3998C35.0603 22.3411 35.1967 21.9768 35.1696 21.1807Z" fill="white"/>
<path d="M26.0795 21.1807V17.3081L24.1143 17.6811V17.922C24.3644 17.908 24.8873 17.8843 24.9713 18.1873C25.0237 18.3704 25.0237 19.2987 25.0237 19.5264V21.2508C25.0075 22.0477 25.086 22.3368 24.1666 22.3998V22.6415C24.6471 22.6275 25.1339 22.6038 25.6198 22.5916C26.0695 22.6038 26.5292 22.6275 26.9528 22.6415V22.3998C25.9702 22.3376 26.1057 21.9742 26.0795 21.1807Z" fill="white"/>
<path d="M30.372 17.7065C29.6026 17.3912 28.7202 17.0654 28.7202 16.1108C28.7202 15.3279 29.3786 14.8331 30.1725 14.8331C31.3808 14.8331 31.9643 15.7378 32.2488 16.7397H32.5342L32.4782 14.6527H32.3382L32.0501 15.1221C31.491 14.7368 30.8588 14.5073 30.1734 14.5073C28.8196 14.5073 27.7114 15.3033 27.7114 16.6784C27.7114 18.0542 28.9144 18.6331 30.0478 19.0561C30.9564 19.4046 31.9408 19.8408 31.9408 20.9372C31.9408 21.9137 31.1307 22.4461 30.1625 22.4461C28.7301 22.4461 28.0555 21.4197 27.8108 20.2025H27.5236V22.5556H27.659L27.9571 22.0486C28.6317 22.5311 29.2919 22.7728 30.1372 22.7728C31.5895 22.7728 33.1113 22.0127 33.1113 20.431C33.1104 18.8528 31.668 18.2232 30.372 17.7065Z" fill="white"/>
</g>
</g>
</g>
<defs>
<clipPath id="clip0_182_6652">
<rect width="56" height="32" fill="white" transform="translate(0 0.444092)"/>
</clipPath>
</defs>
</svg>
