<svg width="56" height="33" viewBox="0 0 56 33" fill="none" xmlns="http://www.w3.org/2000/svg">
<g clip-path="url(#clip0_182_5581)">
<path d="M50 1.35962H6C2.68629 1.35962 0 3.96451 0 7.1778V26.5717C0 29.785 2.68629 32.3899 6 32.3899H50C53.3137 32.3899 56 29.785 56 26.5717V7.1778C56 3.96451 53.3137 1.35962 50 1.35962Z" fill="#111827"/>
<mask id="mask0_182_5581" style="mask-type:luminance" maskUnits="userSpaceOnUse" x="0" y="1" width="56" height="32">
<path d="M56 1.35962H0V32.3899H56V1.35962Z" fill="white"/>
</mask>
<g mask="url(#mask0_182_5581)">
<mask id="mask1_182_5581" style="mask-type:luminance" maskUnits="userSpaceOnUse" x="5" y="-5" width="46" height="44">
<path d="M50.4 -4.84644H5.59998V38.596H50.4V-4.84644Z" fill="white"/>
</mask>
<g mask="url(#mask1_182_5581)">
<path d="M23.5382 10.4104L21.2614 23.3666H24.9027L27.1814 10.4104H23.5382Z" fill="white"/>
<path d="M18.2081 10.4248L14.6417 19.2606L14.2614 17.9265C13.5581 16.319 11.5613 14.0104 9.21704 12.5555L12.4782 23.3602L16.3312 23.3538L22.0659 10.4221L18.2081 10.4248Z" fill="white"/>
<path d="M12.879 11.3522C12.6674 10.5629 12.0539 10.3278 11.2925 10.2996H5.6468L5.59998 10.5575C9.99344 11.591 12.9006 14.0813 14.1069 17.0756L12.879 11.3522Z" fill="white"/>
<path d="M34.5616 12.8942C35.7529 12.8759 36.6164 13.1284 37.287 13.39L37.6157 13.5399L38.1084 10.7317C37.3872 10.4692 36.2568 10.1877 34.8463 10.1877C31.248 10.1877 28.7118 11.9451 28.6921 14.4635C28.6687 16.3244 30.4987 17.3634 31.8811 17.9836C33.3 18.6194 33.7758 19.0235 33.7692 19.5912C33.758 20.4585 32.6379 20.8563 31.5917 20.8563C30.1335 20.8563 29.3589 20.661 28.1629 20.1779L27.6937 19.9708L27.1814 22.8706C28.0337 23.233 29.6062 23.5445 31.2386 23.5608C35.0664 23.5608 37.5539 21.8244 37.5802 19.1334C37.5961 17.6612 36.6249 16.5378 34.5204 15.616C33.2466 15.0148 32.4674 14.6152 32.4749 14.0085C32.4749 13.47 33.1361 12.8942 34.5616 12.8942Z" fill="white"/>
<path d="M47.4535 10.425H44.6401C43.7662 10.425 43.1163 10.6557 42.7323 11.5003L37.3254 23.3741H41.1495C41.1495 23.3741 41.7732 21.7775 41.9146 21.4278C42.3333 21.4278 46.0487 21.4332 46.5778 21.4332C46.6865 21.8855 47.0218 23.3741 47.0218 23.3741H50.4L47.4535 10.425ZM42.9627 18.7759C43.2624 18.0321 44.4134 15.1549 44.4134 15.1549C44.3938 15.1903 44.7103 14.4057 44.8986 13.918L45.1439 15.0351C45.1439 15.0351 45.8417 18.1283 45.9878 18.7759H42.9627Z" fill="white"/>
</g>
</g>
</g>
<defs>
<clipPath id="clip0_182_5581">
<rect width="56" height="32" fill="white" transform="translate(0 0.444092)"/>
</clipPath>
</defs>
</svg>
